# xmcd
#
# Track frame offsets:
#	150
#	29941
#	43386
#	105211
#	177656
#	209138
#	243359
#	263785
#
# Disc length: 3889 seconds
#
# Revision: 1
# Processed by: cddbd v1.5.2PL0 Copyright (c) Steve Scherf et al.
# Submitted via: audiograbber 1.83.01
#
DISCID=7b0f2f08
DTITLE=Grateful Dead - 73-02-22 Assembly Hall, Champaign-Urbana IL
DYEAR=1900
DGENRE=
TTITLE0=Wave That Flag
TTITLE1=Me and My Uncle
TTITLE2=Dark Star
TTITLE3=Eyes Of The World
TTITLE4=China Doll
TTITLE5=GDTRFB
TTITLE6=One More Saturday Night
TTITLE7=Casey Jones
EXTD=
EXTT0=
EXTT1=
EXTT2=
EXTT3=
EXTT4=
EXTT5=
EXTT6=
EXTT7=
PLAYORDER=
